<mxfile host="py-mxgraph"><diagram id="idunno" name="Page-1"><mxGraphModel><root><mxCell id="0" /><mxCell id="1" parent="0" /><mxCell id="idunno-0" parent="1" style="ellipse;whiteSpace=wrap;html=1;aspect=fixed;" vertex="1"><mxGeometry x="100" y="200" width="400" height="300" as="geometry" /></mxCell><mxCell id="idunno-1" parent="1" style="ellipse;whiteSpace=wrap;html=1;aspect=fixed;" vertex="1"><mxGeometry x="400" y="200" width="400" height="300" as="geometry" /></mxCell><mxCell id="idunno-2" parent="1" style="edgeStyle=none;curved=1;orthogonalLoop=1;jettySize=auto;html=1;" source="idunno-0" target="idunno-1" edge="1"><mxGeometry relative="1" as="geometry"><mxPoint x="50" y="60" as="sourcePoint" /><mxPoint x="70" y="80" as="targetPoint" /><Array as="points"><mxPoint x="10" y="20" /><mxPoint x="30" y="40" /></Array></mxGeometry></mxCell></root></mxGraphModel></diagram></mxfile>